# xmcd
#
# Track frame offsets:
#	150
#	6138
#	16661
#	36835
#	67902
#	85128
#	102099
#	116257
#	136010
#	159104
#	163587
#	199731
#	214439
#	240842
#	272266
#
# Disc length: 3808 seconds
#
# Revision: 1
# Processed by: cddbd v1.5.1PL2 Copyright (c) Steve Scherf et al.
# Submitted via: audiograbber 1.80
#
DISCID=a80ede0f
DTITLE=Flavio Guimaraes - Little Blues
DYEAR=1900
DGENRE=
TTITLE0=Baby Please Dont Go
TTITLE1=Hand Jive
TTITLE2=Na Baixa do Sapateiro
TTITLE3=Tin Sandwich Swing
TTITLE4=Russos Blues
TTITLE5=Blues pra Marcia
TTITLE6=Telephone Blues
TTITLE7=Take Five
TTITLE8=Blues Jam For Charlie
TTITLE9=Honest I Do
TTITLE10=Blue Stu
TTITLE11=Free Delay
TTITLE12=Hoochie Cookie Man
TTITLE13=Sick And Tired
TTITLE14=Surfing
EXTD=
EXTT0=
EXTT1=
EXTT2=
EXTT3=
EXTT4=
EXTT5=
EXTT6=
EXTT7=
EXTT8=
EXTT9=
EXTT10=
EXTT11=
EXTT12=
EXTT13=
EXTT14=
PLAYORDER=
